<svg width="32" height="32" xmlns="http://www.w3.org/2000/svg"><rect width="32" height="32" rx="6" ry="6" fill="tan" stroke="#a67c52" stroke-width="2"/><path d="M14.6 11H7.208a.212.212 0 00-.208.208v9.712h2V16.6h3.2v-2H9V13h4M24.784 11h-2.136c-.08 0-.152.04-.2.112l-2.192 3.36-2.192-3.36a.238.238 0 00-.2-.112h-2.16c-.176 0-.272.208-.168.36l3.48 4.784-3.232 4.304c-.104.136-.016.36.16.36h2.008c.08 0 .152-.04.2-.112l2.136-3.088 2.136 3.088c.048.072.12.112.2.112h2.16c.176 0 .272-.216.168-.36l-3.256-4.4 3.256-4.688c.104-.152.008-.36-.168-.36z"/><path stroke="red" stroke-width="3" d="M7 7l18 18M7 25L25 7"/><style>svg:hover rect{fill:#f0d8af}</style></svg>