<?xml version="1.0" encoding="UTF-8"?>
<!DOCTYPE svg PUBLIC "-//W3C//DTD SVG 1.1//EN" "http://www.w3.org/Graphics/SVG/1.1/DTD/svg11.dtd">
<svg xmlns="http://www.w3.org/2000/svg" version="1.1" width="64px" height="64px" style="shape-rendering:geometricPrecision; text-rendering:geometricPrecision; image-rendering:optimizeQuality; fill-rule:evenodd; clip-rule:evenodd" xmlns:xlink="http://www.w3.org/1999/xlink">
<g><path style="opacity:0.644" fill="#f0fcfe" d="M 20.5,3.5 C 20.8333,3.5 21.1667,3.5 21.5,3.5C 22.2905,4.40128 23.2905,5.06795 24.5,5.5C 24.5,6.16667 24.8333,6.5 25.5,6.5C 25.5,7.16667 25.8333,7.5 26.5,7.5C 26.5,8.16667 26.8333,8.5 27.5,8.5C 27.5,8.83333 27.5,9.16667 27.5,9.5C 27.5,10.1667 27.8333,10.5 28.5,10.5C 28.6633,12.8568 28.4966,15.1902 28,17.5C 27.5831,16.244 26.7498,15.5774 25.5,15.5C 24.2599,14.027 23.2599,12.3604 22.5,10.5C 23.0253,9.80762 23.6919,9.30762 24.5,9C 23.4954,7.49333 22.162,6.32666 20.5,5.5C 19.4502,4.57122 19.4502,3.90455 20.5,3.5 Z"/></g>
<g><path style="opacity:0.825" fill="#eefbfe" d="M 32.5,5.5 C 33.7942,6.2899 34.9609,7.2899 36,8.5C 36.3826,7.94404 36.8826,7.61071 37.5,7.5C 37.5,8.16667 37.5,8.83333 37.5,9.5C 36.1667,9.83333 36.1667,10.1667 37.5,10.5C 38.5778,13.4021 39.2444,16.4021 39.5,19.5C 38.9551,26.9628 36.4551,27.9628 32,22.5C 31.6667,23.1667 31.3333,23.8333 31,24.5C 30.044,23.4214 29.2106,22.2547 28.5,21C 29.9836,17.4725 30.9836,13.8058 31.5,10C 28.7416,7.90317 29.0749,6.40317 32.5,5.5 Z"/></g>
<g><path style="opacity:0.502" fill="#c6ebff" d="M 14.5,14.5 C 13.2267,15.0768 13.2267,15.7435 14.5,16.5C 16.0754,17.4565 17.742,18.1231 19.5,18.5C 19.2648,19.0967 18.7648,19.4301 18,19.5C 12.541,17.6454 8.70766,14.6454 6.5,10.5C 6.5,10.1667 6.5,9.83333 6.5,9.5C 7.5,9.5 8.5,9.5 9.5,9.5C 9.38021,6.79515 10.3802,6.12849 12.5,7.5C 15.4265,9.8156 15.0932,11.3156 11.5,12C 12.5707,12.8518 13.5707,13.6851 14.5,14.5 Z"/></g>
<g><path style="opacity:0.655" fill="#e1f6fe" d="M 20.5,3.5 C 19.4502,3.90455 19.4502,4.57122 20.5,5.5C 22.162,6.32666 23.4954,7.49333 24.5,9C 23.6919,9.30762 23.0253,9.80762 22.5,10.5C 23.2599,12.3604 24.2599,14.027 25.5,15.5C 24.3281,16.7053 22.9948,16.7053 21.5,15.5C 21.1667,16.1667 20.8333,16.8333 20.5,17.5C 18.8704,15.736 16.8704,14.736 14.5,14.5C 13.5707,13.6851 12.5707,12.8518 11.5,12C 15.0932,11.3156 15.4265,9.8156 12.5,7.5C 10.3802,6.12849 9.38021,6.79515 9.5,9.5C 8.5,9.5 7.5,9.5 6.5,9.5C 8.35451,4.82685 11.8545,2.16018 17,1.5C 18.4595,1.80822 19.6261,2.47489 20.5,3.5 Z"/></g>
<g><path style="opacity:0.391" fill="#def3fe" d="M 44.5,10.5 C 44.6655,14.5138 44.4988,18.5138 44,22.5C 42.9563,21.3774 42.2896,20.0441 42,18.5C 41.6174,19.056 41.1174,19.3893 40.5,19.5C 41.075,15.8453 40.075,12.8453 37.5,10.5C 37.5,10.1667 37.5,9.83333 37.5,9.5C 37.5,8.83333 37.5,8.16667 37.5,7.5C 40.5007,6.49007 42.8341,7.49007 44.5,10.5 Z"/></g>
<g><path style="opacity:0.384" fill="#d6f3fe" d="M 6.5,10.5 C 8.70766,14.6454 12.541,17.6454 18,19.5C 18.7648,19.4301 19.2648,19.0967 19.5,18.5C 22.1466,19.0729 24.8133,19.7396 27.5,20.5C 26.5445,21.8881 25.5445,23.2214 24.5,24.5C 19.6986,22.6819 15.032,20.6819 10.5,18.5C 9.5041,18.5858 8.67076,18.2524 8,17.5C 7.53566,18.0944 7.36899,18.7611 7.5,19.5C 6.2732,17.3675 5.2732,15.0342 4.5,12.5C 4.74716,11.2867 5.41383,10.62 6.5,10.5 Z"/></g>
<g><path style="opacity:0.577" fill="#e2f7fe" d="M 32.5,5.5 C 29.0749,6.40317 28.7416,7.90317 31.5,10C 30.9836,13.8058 29.9836,17.4725 28.5,21C 29.2106,22.2547 30.044,23.4214 31,24.5C 31.3333,23.8333 31.6667,23.1667 32,22.5C 36.4551,27.9628 38.9551,26.9628 39.5,19.5C 39.8333,19.5 40.1667,19.5 40.5,19.5C 40.1103,22.8394 39.6103,26.1727 39,29.5C 38.6667,28.8333 38.3333,28.1667 38,27.5C 37.1146,30 35.9479,32.3333 34.5,34.5C 35.3482,36.4086 35.6816,38.4086 35.5,40.5C 34.522,38.5439 33.522,36.5439 32.5,34.5C 30.2404,33.637 28.7404,31.9703 28,29.5C 25.9361,30.5914 23.7695,30.7581 21.5,30C 24.1013,29.0797 26.7679,28.413 29.5,28C 23.7714,27.0418 18.4381,25.0418 13.5,22C 12.2899,20.9609 11.2899,19.7942 10.5,18.5C 15.032,20.6819 19.6986,22.6819 24.5,24.5C 25.5445,23.2214 26.5445,21.8881 27.5,20.5C 24.8133,19.7396 22.1466,19.0729 19.5,18.5C 17.742,18.1231 16.0754,17.4565 14.5,16.5C 13.2267,15.7435 13.2267,15.0768 14.5,14.5C 16.8704,14.736 18.8704,15.736 20.5,17.5C 20.8333,16.8333 21.1667,16.1667 21.5,15.5C 22.9948,16.7053 24.3281,16.7053 25.5,15.5C 26.7498,15.5774 27.5831,16.244 28,17.5C 28.4966,15.1902 28.6633,12.8568 28.5,10.5C 27.8333,10.5 27.5,10.1667 27.5,9.5C 27.5,9.16667 27.5,8.83333 27.5,8.5C 26.8333,8.5 26.5,8.16667 26.5,7.5C 25.8333,7.5 25.5,7.16667 25.5,6.5C 24.8333,6.5 24.5,6.16667 24.5,5.5C 23.2905,5.06795 22.2905,4.40128 21.5,3.5C 21.811,2.52216 22.4777,1.85549 23.5,1.5C 25.6743,2.86339 27.841,3.19672 30,2.5C 31.045,3.37344 31.8783,4.37344 32.5,5.5 Z"/></g>
<g><path style="opacity:0.74" fill="#edfafe" d="M 44.5,10.5 C 46.7143,12.9955 47.8809,15.9955 48,19.5C 48.9862,18.8288 50.1529,18.8288 51.5,19.5C 51.573,21.0269 50.9063,22.0269 49.5,22.5C 48.8897,20.1497 48.5563,20.483 48.5,23.5C 47.7473,27.6721 45.914,31.3387 43,34.5C 42.5099,36.5454 42.6765,38.5454 43.5,40.5C 43.1667,40.5 42.8333,40.5 42.5,40.5C 39.6796,35.1148 39.0129,35.4482 40.5,41.5C 38.5853,41.7845 36.9187,41.4511 35.5,40.5C 35.6816,38.4086 35.3482,36.4086 34.5,34.5C 35.9479,32.3333 37.1146,30 38,27.5C 38.3333,28.1667 38.6667,28.8333 39,29.5C 39.6103,26.1727 40.1103,22.8394 40.5,19.5C 41.1174,19.3893 41.6174,19.056 42,18.5C 42.2896,20.0441 42.9563,21.3774 44,22.5C 44.4988,18.5138 44.6655,14.5138 44.5,10.5 Z"/></g>
<g><path style="opacity:0.357" fill="#d7f3fe" d="M 10.5,24.5 C 10.8417,25.3382 11.5084,25.6716 12.5,25.5C 12.8417,26.3382 13.5084,26.6716 14.5,26.5C 14.8333,26.5 15.1667,26.5 15.5,26.5C 15.5,26.8333 15.5,27.1667 15.5,27.5C 15.3893,28.1174 15.056,28.6174 14.5,29C 17.8333,30.3333 21.1667,31.6667 24.5,33C 22.4325,33.6869 20.4325,33.5202 18.5,32.5C 17.7025,32.9569 17.3691,33.6236 17.5,34.5C 11.5435,31.8769 7.21012,27.5435 4.5,21.5C 4.83333,21.1667 5.16667,20.8333 5.5,20.5C 6.60458,22.6114 8.27124,23.9447 10.5,24.5 Z"/></g>
<g><path style="opacity:0.384" fill="#c8effe" d="M 10.5,18.5 C 11.2899,19.7942 12.2899,20.9609 13.5,22C 18.4381,25.0418 23.7714,27.0418 29.5,28C 26.7679,28.413 24.1013,29.0797 21.5,30C 23.7695,30.7581 25.9361,30.5914 28,29.5C 28.7404,31.9703 30.2404,33.637 32.5,34.5C 30.8967,34.3118 29.5634,34.8118 28.5,36C 32.7128,38.9861 32.3795,40.3194 27.5,40C 26.3333,39.5 25.5,38.6667 25,37.5C 23.2663,38.2489 21.433,38.7489 19.5,39C 19.8333,39.3333 20.1667,39.6667 20.5,40C 18.9336,40.6082 17.6002,41.4415 16.5,42.5C 16.1667,42.5 15.8333,42.5 15.5,42.5C 15.2587,40.1137 15.9254,38.1137 17.5,36.5C 19.166,37.6664 20.8327,37.6664 22.5,36.5C 20.7086,35.8302 19.0419,35.1635 17.5,34.5C 17.3691,33.6236 17.7025,32.9569 18.5,32.5C 20.4325,33.5202 22.4325,33.6869 24.5,33C 21.1667,31.6667 17.8333,30.3333 14.5,29C 15.056,28.6174 15.3893,28.1174 15.5,27.5C 16.8333,27.1667 16.8333,26.8333 15.5,26.5C 15.1667,26.5 14.8333,26.5 14.5,26.5C 14.1583,25.6618 13.4916,25.3284 12.5,25.5C 12.1583,24.6618 11.4916,24.3284 10.5,24.5C 9.07501,23.078 8.07501,21.4113 7.5,19.5C 7.36899,18.7611 7.53566,18.0944 8,17.5C 8.67076,18.2524 9.5041,18.5858 10.5,18.5 Z"/></g>
<g><path style="opacity:0.731" fill="#daf4fe" d="M 51.5,19.5 C 52.2679,20.2625 52.7679,21.2625 53,22.5C 53.3333,21.5 53.6667,20.5 54,19.5C 54.3108,21.556 54.8108,23.556 55.5,25.5C 55.2907,26.086 54.9574,26.586 54.5,27C 56.425,27.9447 58.7583,28.9447 61.5,30C 59.3215,30.4419 58.6548,31.4419 59.5,33C 58.5,34 57.5,35 56.5,36C 62.3159,36.7487 62.6492,38.082 57.5,40C 58.5,40.8333 59.5,41.6667 60.5,42.5C 60.1445,43.5223 59.4778,44.189 58.5,44.5C 58.4827,42.9719 57.816,42.4719 56.5,43C 56.493,44.5827 56.8263,46.2494 57.5,48C 56.451,48.4922 55.451,48.3256 54.5,47.5C 54.1667,48.1667 53.8333,48.8333 53.5,49.5C 53.8492,51.6602 53.8492,53.6602 53.5,55.5C 54.7401,56.973 55.7401,58.6396 56.5,60.5C 55.132,61.5937 53.9653,61.2603 53,59.5C 52.1841,60.8228 51.0174,61.4894 49.5,61.5C 49.1692,59.6776 48.5025,58.0109 47.5,56.5C 48.4778,56.189 49.1445,55.5223 49.5,54.5C 49.1065,49.0562 47.1065,44.3895 43.5,40.5C 42.6765,38.5454 42.5099,36.5454 43,34.5C 45.914,31.3387 47.7473,27.6721 48.5,23.5C 49.1103,25.8503 49.4437,25.517 49.5,22.5C 50.9063,22.0269 51.573,21.0269 51.5,19.5 Z"/></g>
<g><path style="opacity:0.004" fill="#fef1ee" d="M 8.5,32.5 C 7.83333,31.1667 7.83333,31.1667 8.5,32.5 Z"/></g>
<g><path style="opacity:0.004" fill="#f6fefc" d="M 8.5,36.5 C 7.83333,35.1667 7.83333,35.1667 8.5,36.5 Z"/></g>
<g><path style="opacity:0.159" fill="#ddf3fd" d="M 8.5,32.5 C 11.3929,34.114 14.3929,35.4473 17.5,36.5C 15.9254,38.1137 15.2587,40.1137 15.5,42.5C 12.253,41.5877 9.91968,39.5877 8.5,36.5C 9.23891,36.631 9.90558,36.4643 10.5,36C 9.17723,35.1841 8.51056,34.0174 8.5,32.5 Z"/></g>
<g><path style="opacity:0.52" fill="#daf5fe" d="M 32.5,34.5 C 33.522,36.5439 34.522,38.5439 35.5,40.5C 36.9187,41.4511 38.5853,41.7845 40.5,41.5C 39.0129,35.4482 39.6796,35.1148 42.5,40.5C 45.5231,45.8137 44.8565,46.4803 40.5,42.5C 39.8203,44.3257 38.1536,45.8257 35.5,47C 38.168,50.1213 40.8346,52.6213 43.5,54.5C 43.2533,56.9752 42.5866,56.9752 41.5,54.5C 39.604,53.5344 37.604,53.2011 35.5,53.5C 35.8146,51.7741 35.9813,50.1075 36,48.5C 34.2112,51.1792 33.0445,51.0125 32.5,48C 32.7549,46.6739 33.4216,45.6739 34.5,45C 30.2587,42.5438 25.9253,42.2105 21.5,44C 22.1667,44.3333 22.8333,44.6667 23.5,45C 22.6195,45.7083 21.9528,46.5416 21.5,47.5C 20.7611,47.631 20.0944,47.4643 19.5,47C 20.3366,45.9887 20.67,44.8221 20.5,43.5C 18.901,43.7678 17.5676,43.4345 16.5,42.5C 17.6002,41.4415 18.9336,40.6082 20.5,40C 20.1667,39.6667 19.8333,39.3333 19.5,39C 21.433,38.7489 23.2663,38.2489 25,37.5C 25.5,38.6667 26.3333,39.5 27.5,40C 32.3795,40.3194 32.7128,38.9861 28.5,36C 29.5634,34.8118 30.8967,34.3118 32.5,34.5 Z"/></g>
<g><path style="opacity:0.524" fill="#cbeefe" d="M 58.5,44.5 C 58.7031,46.0443 59.3698,47.3777 60.5,48.5C 55.5523,49.4515 55.2189,51.2848 59.5,54C 58.2161,54.6838 57.0495,54.5171 56,53.5C 55.5831,54.756 54.7498,55.4226 53.5,55.5C 53.8492,53.6602 53.8492,51.6602 53.5,49.5C 53.8333,48.8333 54.1667,48.1667 54.5,47.5C 55.451,48.3256 56.451,48.4922 57.5,48C 56.8263,46.2494 56.493,44.5827 56.5,43C 57.816,42.4719 58.4827,42.9719 58.5,44.5 Z"/></g>
<g><path style="opacity:0.755" fill="#e5f8fe" d="M 42.5,40.5 C 42.8333,40.5 43.1667,40.5 43.5,40.5C 47.1065,44.3895 49.1065,49.0562 49.5,54.5C 49.1445,55.5223 48.4778,56.189 47.5,56.5C 46.3951,55.3995 45.0618,54.7329 43.5,54.5C 40.8346,52.6213 38.168,50.1213 35.5,47C 38.1536,45.8257 39.8203,44.3257 40.5,42.5C 44.8565,46.4803 45.5231,45.8137 42.5,40.5 Z"/></g>
<g><path style="opacity:0.106" fill="#c6eefe" d="M 43.5,54.5 C 45.0618,54.7329 46.3951,55.3995 47.5,56.5C 48.5025,58.0109 49.1692,59.6776 49.5,61.5C 49.5,62.1667 49.5,62.8333 49.5,63.5C 49.1667,63.5 48.8333,63.5 48.5,63.5C 47.5,60.8333 46.5,60.8333 45.5,63.5C 45.1667,63.5 44.8333,63.5 44.5,63.5C 43.7565,60.4115 42.0898,59.7449 39.5,61.5C 37.3536,58.2375 35.8536,58.2375 35,61.5C 34.5475,57.8658 32.7142,56.6991 29.5,58C 30.1667,57.3333 30.8333,56.6667 31.5,56C 29.8333,55.6667 28.1667,55.3333 26.5,55C 27.8333,54.3333 27.8333,53.6667 26.5,53C 24.3308,51.3555 22.3308,50.1889 20.5,49.5C 21.6507,48.269 22.8173,48.269 24,49.5C 24.5,49 25,48.5 25.5,48C 24.2068,47.51 22.8734,47.3433 21.5,47.5C 21.9528,46.5416 22.6195,45.7083 23.5,45C 22.8333,44.6667 22.1667,44.3333 21.5,44C 25.9253,42.2105 30.2587,42.5438 34.5,45C 33.4216,45.6739 32.7549,46.6739 32.5,48C 33.0445,51.0125 34.2112,51.1792 36,48.5C 35.9813,50.1075 35.8146,51.7741 35.5,53.5C 37.604,53.2011 39.604,53.5344 41.5,54.5C 42.5866,56.9752 43.2533,56.9752 43.5,54.5 Z"/></g>
<g><path style="opacity:0.004" fill="#dfedfa" d="M 39.5,61.5 C 38.8333,62.1667 38.8333,62.1667 39.5,61.5 Z"/></g>
</svg>
